<?xml version="1.0" encoding="UTF-8"?>
<svg xmlns="http://www.w3.org/2000/svg" xmlns:xlink="http://www.w3.org/1999/xlink" width="3872.98" height="3872.98" viewBox="0 0 3872.98 3872.98">
<defs>
<clipPath id="clip-0">
<path clip-rule="nonzero" d="M 45 45 L 3828 45 L 3828 3828 L 45 3828 Z M 45 45 "/>
</clipPath>
<clipPath id="clip-1">
<path clip-rule="evenodd" d="M 1936.488281 45.378906 C 2980.921875 45.378906 3827.601562 892.058594 3827.601562 1936.488281 C 3827.601562 2980.921875 2980.921875 3827.601562 1936.488281 3827.601562 C 892.058594 3827.601562 45.378906 2980.921875 45.378906 1936.488281 C 45.378906 892.058594 892.058594 45.378906 1936.488281 45.378906 "/>
</clipPath>
<linearGradient id="linear-pattern-0" gradientUnits="userSpaceOnUse" x1="0.000000449471" y1="0" x2="1" y2="0" gradientTransform="matrix(3782.22, 3782.22, 3782.22, -3782.22, 45.3767, 45.38)">
<stop offset="0" stop-color="rgb(93.72406%, 15.852356%, 60.992432%)" stop-opacity="1"/>
<stop offset="0.015625" stop-color="rgb(93.710327%, 15.661621%, 60.908508%)" stop-opacity="1"/>
<stop offset="0.03125" stop-color="rgb(93.681335%, 15.292358%, 60.644531%)" stop-opacity="1"/>
<stop offset="0.046875" stop-color="rgb(93.65387%, 14.93988%, 60.28595%)" stop-opacity="1"/>
<stop offset="0.0546875" stop-color="rgb(93.634033%, 14.685059%, 59.97467%)" stop-opacity="1"/>
<stop offset="0.0625" stop-color="rgb(93.621826%, 14.524841%, 59.70459%)" stop-opacity="1"/>
<stop offset="0.0703125" stop-color="rgb(93.60199%, 14.276123%, 59.437561%)" stop-opacity="1"/>
<stop offset="0.078125" stop-color="rgb(93.574524%, 13.922119%, 59.176636%)" stop-opacity="1"/>
<stop offset="0.0859375" stop-color="rgb(93.551636%, 13.63678%, 58.952332%)" stop-opacity="1"/>
<stop offset="0.09375" stop-color="rgb(93.537903%, 13.446045%, 58.7677%)" stop-opacity="1"/>
<stop offset="0.109375" stop-color="rgb(93.530273%, 13.357544%, 58.580017%)" stop-opacity="1"/>
<stop offset="0.125" stop-color="rgb(93.383789%, 13.224792%, 58.31604%)" stop-opacity="1"/>
<stop offset="0.132812" stop-color="rgb(93.103027%, 13.032532%, 58.033752%)" stop-opacity="1"/>
<stop offset="0.140625" stop-color="rgb(92.810059%, 12.919617%, 57.78656%)" stop-opacity="1"/>
<stop offset="0.148437" stop-color="rgb(92.552185%, 12.797546%, 57.559204%)" stop-opacity="1"/>
<stop offset="0.15625" stop-color="rgb(92.367554%, 12.654114%, 57.377625%)" stop-opacity="1"/>
<stop offset="0.164062" stop-color="rgb(92.155457%, 12.521362%, 57.180786%)" stop-opacity="1"/>
<stop offset="0.171875" stop-color="rgb(91.868591%, 12.408447%, 56.939697%)" stop-opacity="1"/>
<stop offset="0.179688" stop-color="rgb(91.557312%, 12.30011%, 56.715393%)" stop-opacity="1"/>
<stop offset="0.1875" stop-color="rgb(91.247559%, 12.181091%, 56.536865%)" stop-opacity="1"/>
<stop offset="0.195312" stop-color="rgb(90.983582%, 12.059021%, 56.347656%)" stop-opacity="1"/>
<stop offset="0.203125" stop-color="rgb(90.795898%, 11.930847%, 56.109619%)" stop-opacity="1"/>
<stop offset="0.210937" stop-color="rgb(90.592957%, 11.811829%, 55.857849%)" stop-opacity="1"/>
<stop offset="0.21875" stop-color="rgb(90.315247%, 11.705017%, 55.607605%)" stop-opacity="1"/>
<stop offset="0.226562" stop-color="rgb(90.048218%, 11.593628%, 55.384827%)" stop-opacity="1"/>
<stop offset="0.234375" stop-color="rgb(89.855957%, 11.459351%, 55.204773%)" stop-opacity="1"/>
<stop offset="0.242187" stop-color="rgb(89.659119%, 11.329651%, 55.021667%)" stop-opacity="1"/>
<stop offset="0.25" stop-color="rgb(89.387512%, 11.219788%, 54.797363%)" stop-opacity="1"/>
<stop offset="0.257812" stop-color="rgb(89.080811%, 11.11908%, 54.576111%)" stop-opacity="1"/>
<stop offset="0.265625" stop-color="rgb(88.775635%, 11.00769%, 54.400635%)" stop-opacity="1"/>
<stop offset="0.273437" stop-color="rgb(88.504028%, 10.89325%, 54.226685%)" stop-opacity="1"/>
<stop offset="0.28125" stop-color="rgb(88.305664%, 10.772705%, 54.005432%)" stop-opacity="1"/>
<stop offset="0.289062" stop-color="rgb(88.117981%, 10.658264%, 53.762817%)" stop-opacity="1"/>
<stop offset="0.296875" stop-color="rgb(87.857056%, 10.55603%, 53.523254%)" stop-opacity="1"/>
<stop offset="0.304687" stop-color="rgb(87.582397%, 10.456848%, 53.286743%)" stop-opacity="1"/>
<stop offset="0.3125" stop-color="rgb(87.382507%, 10.345459%, 53.04718%)" stop-opacity="1"/>
<stop offset="0.320312" stop-color="rgb(87.200928%, 10.231018%, 52.809143%)" stop-opacity="1"/>
<stop offset="0.328125" stop-color="rgb(86.94458%, 10.13031%, 52.572632%)" stop-opacity="1"/>
<stop offset="0.335937" stop-color="rgb(86.642456%, 10.040283%, 52.340698%)" stop-opacity="1"/>
<stop offset="0.34375" stop-color="rgb(86.341858%, 9.94873%, 52.110291%)" stop-opacity="1"/>
<stop offset="0.351562" stop-color="rgb(86.04126%, 9.860229%, 51.879883%)" stop-opacity="1"/>
<stop offset="0.359375" stop-color="rgb(85.740662%, 9.771729%, 51.651001%)" stop-opacity="1"/>
<stop offset="0.367187" stop-color="rgb(85.441589%, 9.683228%, 51.423645%)" stop-opacity="1"/>
<stop offset="0.375" stop-color="rgb(85.142517%, 9.596252%, 51.197815%)" stop-opacity="1"/>
<stop offset="0.382812" stop-color="rgb(84.843445%, 9.510803%, 50.971985%)" stop-opacity="1"/>
<stop offset="0.390625" stop-color="rgb(84.544373%, 9.423828%, 50.747681%)" stop-opacity="1"/>
<stop offset="0.394531" stop-color="rgb(84.248352%, 9.359741%, 50.523376%)" stop-opacity="1"/>
<stop offset="0.398437" stop-color="rgb(84.098816%, 9.336853%, 50.410461%)" stop-opacity="1"/>
<stop offset="0.402344" stop-color="rgb(83.955383%, 9.391785%, 50.291443%)" stop-opacity="1"/>
<stop offset="0.40625" stop-color="rgb(83.811951%, 9.446716%, 50.172424%)" stop-opacity="1"/>
<stop offset="0.410156" stop-color="rgb(83.666992%, 9.484863%, 50.053406%)" stop-opacity="1"/>
<stop offset="0.414062" stop-color="rgb(83.522034%, 9.521484%, 49.935913%)" stop-opacity="1"/>
<stop offset="0.421875" stop-color="rgb(83.374023%, 9.47876%, 49.82605%)" stop-opacity="1"/>
<stop offset="0.429687" stop-color="rgb(83.078003%, 9.396362%, 49.607849%)" stop-opacity="1"/>
<stop offset="0.4375" stop-color="rgb(82.781982%, 9.313965%, 49.389648%)" stop-opacity="1"/>
<stop offset="0.441406" stop-color="rgb(82.487488%, 9.233093%, 49.168396%)" stop-opacity="1"/>
<stop offset="0.445312" stop-color="rgb(82.339478%, 9.191895%, 49.055481%)" stop-opacity="1"/>
<stop offset="0.449219" stop-color="rgb(82.192993%, 9.161377%, 48.905945%)" stop-opacity="1"/>
<stop offset="0.453125" stop-color="rgb(82.046509%, 9.129333%, 48.757935%)" stop-opacity="1"/>
<stop offset="0.457031" stop-color="rgb(81.893921%, 9.098816%, 48.612976%)" stop-opacity="1"/>
<stop offset="0.460937" stop-color="rgb(81.741333%, 9.068298%, 48.469543%)" stop-opacity="1"/>
<stop offset="0.464844" stop-color="rgb(81.523132%, 9.043884%, 48.365784%)" stop-opacity="1"/>
<stop offset="0.46875" stop-color="rgb(81.303406%, 9.017944%, 48.26355%)" stop-opacity="1"/>
<stop offset="0.472656" stop-color="rgb(81.091309%, 8.992004%, 48.15979%)" stop-opacity="1"/>
<stop offset="0.476562" stop-color="rgb(80.879211%, 8.966064%, 48.057556%)" stop-opacity="1"/>
<stop offset="0.484375" stop-color="rgb(80.804443%, 8.912659%, 47.949219%)" stop-opacity="1"/>
<stop offset="0.492187" stop-color="rgb(80.656433%, 8.805847%, 47.731018%)" stop-opacity="1"/>
<stop offset="0.496094" stop-color="rgb(80.436707%, 8.72345%, 47.479248%)" stop-opacity="1"/>
<stop offset="0.5" stop-color="rgb(80.290222%, 8.692932%, 47.33429%)" stop-opacity="1"/>
<stop offset="0.503906" stop-color="rgb(80.14679%, 8.66394%, 47.189331%)" stop-opacity="1"/>
<stop offset="0.507812" stop-color="rgb(80.001831%, 8.634949%, 47.045898%)" stop-opacity="1"/>
<stop offset="0.515625" stop-color="rgb(79.858398%, 8.67157%, 47.012329%)" stop-opacity="1"/>
<stop offset="0.523438" stop-color="rgb(79.571533%, 8.747864%, 46.943665%)" stop-opacity="1"/>
<stop offset="0.527344" stop-color="rgb(79.283142%, 8.760071%, 46.774292%)" stop-opacity="1"/>
<stop offset="0.53125" stop-color="rgb(79.138184%, 8.734131%, 46.635437%)" stop-opacity="1"/>
<stop offset="0.535156" stop-color="rgb(78.994751%, 8.705139%, 46.49353%)" stop-opacity="1"/>
<stop offset="0.539062" stop-color="rgb(78.851318%, 8.677673%, 46.351624%)" stop-opacity="1"/>
<stop offset="0.542969" stop-color="rgb(78.645325%, 8.557129%, 46.180725%)" stop-opacity="1"/>
<stop offset="0.546875" stop-color="rgb(78.437805%, 8.436584%, 46.009827%)" stop-opacity="1"/>
<stop offset="0.554688" stop-color="rgb(78.227234%, 8.309937%, 45.835876%)" stop-opacity="1"/>
<stop offset="0.5625" stop-color="rgb(77.929688%, 8.123779%, 45.552063%)" stop-opacity="1"/>
<stop offset="0.570313" stop-color="rgb(77.770996%, 8.01239%, 45.33844%)" stop-opacity="1"/>
<stop offset="0.578125" stop-color="rgb(77.565002%, 7.925415%, 45.137024%)" stop-opacity="1"/>
<stop offset="0.585938" stop-color="rgb(77.288818%, 7.853699%, 44.93866%)" stop-opacity="1"/>
<stop offset="0.59375" stop-color="rgb(76.950073%, 7.771301%, 44.740295%)" stop-opacity="1"/>
<stop offset="0.601562" stop-color="rgb(76.548767%, 7.673645%, 44.537354%)" stop-opacity="1"/>
<stop offset="0.609375" stop-color="rgb(76.243591%, 7.575989%, 44.335938%)" stop-opacity="1"/>
<stop offset="0.617188" stop-color="rgb(76.072693%, 7.476807%, 44.134521%)" stop-opacity="1"/>
<stop offset="0.625" stop-color="rgb(75.883484%, 7.374573%, 43.902588%)" stop-opacity="1"/>
<stop offset="0.632813" stop-color="rgb(75.63324%, 7.264709%, 43.629456%)" stop-opacity="1"/>
<stop offset="0.636719" stop-color="rgb(75.361633%, 7.177734%, 43.354797%)" stop-opacity="1"/>
<stop offset="0.640625" stop-color="rgb(75.222778%, 7.144165%, 43.218994%)" stop-opacity="1"/>
<stop offset="0.644531" stop-color="rgb(75.083923%, 7.121277%, 43.087769%)" stop-opacity="1"/>
<stop offset="0.648438" stop-color="rgb(74.945068%, 7.098389%, 42.956543%)" stop-opacity="1"/>
<stop offset="0.65625" stop-color="rgb(74.810791%, 7.102966%, 42.86499%)" stop-opacity="1"/>
<stop offset="0.664062" stop-color="rgb(74.543762%, 7.124329%, 42.697144%)" stop-opacity="1"/>
<stop offset="0.671875" stop-color="rgb(74.32251%, 7.168579%, 42.549133%)" stop-opacity="1"/>
<stop offset="0.679688" stop-color="rgb(74.165344%, 7.228088%, 42.405701%)" stop-opacity="1"/>
<stop offset="0.6875" stop-color="rgb(73.944092%, 7.298279%, 42.240906%)" stop-opacity="1"/>
<stop offset="0.695313" stop-color="rgb(73.59314%, 7.376099%, 42.03949%)" stop-opacity="1"/>
<stop offset="0.703125" stop-color="rgb(73.236084%, 7.446289%, 41.821289%)" stop-opacity="1"/>
<stop offset="0.710938" stop-color="rgb(72.949219%, 7.501221%, 41.600037%)" stop-opacity="1"/>
<stop offset="0.71875" stop-color="rgb(72.689819%, 7.550049%, 41.378784%)" stop-opacity="1"/>
<stop offset="0.726562" stop-color="rgb(72.431946%, 7.598877%, 41.157532%)" stop-opacity="1"/>
<stop offset="0.734375" stop-color="rgb(72.172546%, 7.643127%, 40.957642%)" stop-opacity="1"/>
<stop offset="0.742188" stop-color="rgb(71.914673%, 7.678223%, 40.792847%)" stop-opacity="1"/>
<stop offset="0.75" stop-color="rgb(71.620178%, 7.720947%, 40.631104%)" stop-opacity="1"/>
<stop offset="0.757812" stop-color="rgb(71.260071%, 7.785034%, 40.435791%)" stop-opacity="1"/>
<stop offset="0.765625" stop-color="rgb(70.899963%, 7.855225%, 40.223694%)" stop-opacity="1"/>
<stop offset="0.773438" stop-color="rgb(70.608521%, 7.90863%, 40.008545%)" stop-opacity="1"/>
<stop offset="0.78125" stop-color="rgb(70.326233%, 7.946777%, 39.790344%)" stop-opacity="1"/>
<stop offset="0.789062" stop-color="rgb(69.98291%, 7.969666%, 39.567566%)" stop-opacity="1"/>
<stop offset="0.796875" stop-color="rgb(69.631958%, 7.984924%, 39.361572%)" stop-opacity="1"/>
<stop offset="0.804687" stop-color="rgb(69.342041%, 8.009338%, 39.195251%)" stop-opacity="1"/>
<stop offset="0.8125" stop-color="rgb(69.088745%, 8.041382%, 39.039612%)" stop-opacity="1"/>
<stop offset="0.820312" stop-color="rgb(68.835449%, 8.079529%, 38.847351%)" stop-opacity="1"/>
<stop offset="0.828125" stop-color="rgb(68.563843%, 8.120728%, 38.619995%)" stop-opacity="1"/>
<stop offset="0.835938" stop-color="rgb(68.231201%, 8.151245%, 38.354492%)" stop-opacity="1"/>
<stop offset="0.84375" stop-color="rgb(67.881775%, 8.177185%, 38.088989%)" stop-opacity="1"/>
<stop offset="0.859375" stop-color="rgb(67.481995%, 8.21228%, 37.826538%)" stop-opacity="1"/>
<stop offset="0.867187" stop-color="rgb(67.190552%, 8.235168%, 37.611389%)" stop-opacity="1"/>
<stop offset="0.875" stop-color="rgb(67.042542%, 8.235168%, 37.445068%)" stop-opacity="1"/>
<stop offset="0.882812" stop-color="rgb(66.769409%, 8.250427%, 37.211609%)" stop-opacity="1"/>
<stop offset="0.890625" stop-color="rgb(66.416931%, 8.273315%, 36.941528%)" stop-opacity="1"/>
<stop offset="0.898438" stop-color="rgb(66.122437%, 8.297729%, 36.747742%)" stop-opacity="1"/>
<stop offset="0.90625" stop-color="rgb(65.863037%, 8.322144%, 36.595154%)" stop-opacity="1"/>
<stop offset="0.914062" stop-color="rgb(65.545654%, 8.345032%, 36.372375%)" stop-opacity="1"/>
<stop offset="0.921875" stop-color="rgb(65.193176%, 8.363342%, 36.094666%)" stop-opacity="1"/>
<stop offset="0.929687" stop-color="rgb(64.904785%, 8.360291%, 35.848999%)" stop-opacity="1"/>
<stop offset="0.9375" stop-color="rgb(64.671326%, 8.34198%, 35.630798%)" stop-opacity="1"/>
<stop offset="0.945312" stop-color="rgb(64.431763%, 8.354187%, 35.420227%)" stop-opacity="1"/>
<stop offset="0.953125" stop-color="rgb(64.18457%, 8.389282%, 35.217285%)" stop-opacity="1"/>
<stop offset="0.960938" stop-color="rgb(63.874817%, 8.409119%, 35.011292%)" stop-opacity="1"/>
<stop offset="0.96875" stop-color="rgb(63.514709%, 8.413696%, 34.799194%)" stop-opacity="1"/>
<stop offset="0.976562" stop-color="rgb(63.154602%, 8.425903%, 34.55658%)" stop-opacity="1"/>
<stop offset="0.984375" stop-color="rgb(62.799072%, 8.442688%, 34.281921%)" stop-opacity="1"/>
<stop offset="0.992188" stop-color="rgb(62.507629%, 8.43811%, 34.039307%)" stop-opacity="1"/>
<stop offset="1" stop-color="rgb(62.275696%, 8.415222%, 33.824158%)" stop-opacity="1"/>
</linearGradient>
</defs>
<g clip-path="url(#clip-0)">
<g clip-path="url(#clip-1)">
<path fill-rule="nonzero" fill="url(#linear-pattern-0)" d="M -1845.730469 1936.488281 L 1936.488281 -1845.730469 L 5718.710938 1936.488281 L 1936.488281 5718.710938 Z M -1845.730469 1936.488281 "/>
</g>
</g>
<path fill-rule="evenodd" fill="rgb(100%, 100%, 100%)" fill-opacity="1" d="M 1623.589844 2765.980469 C 1621.621094 2765.980469 1619.570312 2765.980469 1617.519531 2765.898438 C 1616.339844 2765.898438 1615 2765.738281 1613.820312 2765.578125 C 1563 2757.78125 1518.320312 2751.628906 1479 2746.121094 C 1329.128906 2725.320312 1253.960938 2714.839844 1206.050781 2667.011719 C 1158.21875 2619.101562 1147.738281 2543.929688 1126.941406 2394.058594 C 1121.5 2354.738281 1115.28125 2310.140625 1107.480469 2259.238281 C 1107.320312 2257.980469 1107.160156 2256.71875 1107.160156 2255.460938 C 1105.820312 2200.300781 1122.210938 2154.128906 1154.441406 2121.898438 C 1201.089844 2075.328125 1274.839844 2062.488281 1362.148438 2085.808594 C 1377.910156 2089.988281 1387.210938 2106.140625 1383.03125 2121.898438 C 1378.851562 2137.660156 1362.699219 2146.960938 1346.941406 2142.78125 C 1280.828125 2125.128906 1227.25 2132.539062 1196.121094 2163.578125 C 1175.871094 2183.828125 1165.46875 2214.480469 1166.019531 2252.230469 C 1173.660156 2302.660156 1179.808594 2346.859375 1185.25 2385.871094 C 1204.238281 2522.660156 1213.769531 2591.371094 1247.660156 2625.25 C 1281.550781 2659.128906 1350.25 2668.671875 1487.039062 2687.660156 C 1526.121094 2693.101562 1570.25 2699.238281 1620.679688 2706.890625 C 1658.191406 2707.359375 1689.070312 2697.039062 1709.25 2676.789062 C 1740.371094 2645.671875 1747.78125 2592.160156 1730.050781 2525.96875 C 1725.871094 2510.210938 1735.25 2494.058594 1750.929688 2489.878906 C 1766.691406 2485.699219 1782.839844 2495 1787.019531 2510.761719 C 1810.339844 2598.140625 1797.578125 2671.898438 1750.929688 2718.46875 C 1720.039062 2749.589844 1675.988281 2765.980469 1623.589844 2765.980469 "/>
<path fill-rule="evenodd" fill="rgb(100%, 100%, 100%)" fill-opacity="1" d="M 1758.730469 2547.949219 C 1751.171875 2547.949219 1743.601562 2545.109375 1737.851562 2539.28125 C 1726.351562 2527.78125 1726.351562 2509.101562 1737.851562 2497.601562 L 2497.601562 1737.851562 C 2509.101562 1726.351562 2527.699219 1726.351562 2539.28125 1737.851562 C 2550.78125 1749.351562 2550.78125 1768.03125 2539.28125 1779.53125 L 1779.53125 2539.28125 C 1773.78125 2545.03125 1766.289062 2547.949219 1758.730469 2547.949219 "/>
<path fill-rule="evenodd" fill="rgb(100%, 100%, 100%)" fill-opacity="1" d="M 1354.578125 2143.800781 C 1347.019531 2143.800781 1339.449219 2140.960938 1333.699219 2135.128906 C 1322.269531 2123.628906 1322.199219 2104.949219 1333.699219 2093.449219 L 2093.21875 1333.929688 C 2104.71875 1322.429688 2123.398438 1322.429688 2134.898438 1333.929688 C 2146.398438 1345.429688 2146.398438 1364.109375 2134.898438 1375.609375 L 1375.460938 2135.050781 C 1369.710938 2140.890625 1362.070312 2143.800781 1354.578125 2143.800781 "/>
<path fill-rule="evenodd" fill="rgb(100%, 100%, 100%)" fill-opacity="1" d="M 2591.519531 1798.519531 C 2566.378906 1798.519531 2539.359375 1794.738281 2510.828125 1787.171875 C 2495.148438 1782.988281 2485.769531 1766.839844 2489.949219 1751.078125 C 2494.210938 1735.320312 2510.359375 1726.019531 2526.121094 1730.199219 C 2592.308594 1747.851562 2645.808594 1740.441406 2676.941406 1709.398438 C 2697.191406 1689.148438 2707.589844 1658.5 2707.039062 1620.75 C 2699.320312 1570.320312 2693.25 1526.121094 2687.808594 1487.109375 C 2668.820312 1350.320312 2659.289062 1281.609375 2625.398438 1247.730469 C 2591.601562 1213.851562 2522.890625 1204.308594 2386.019531 1185.320312 C 2346.941406 1179.878906 2302.808594 1173.738281 2252.378906 1166.019531 C 2214.789062 1165.550781 2183.988281 1175.871094 2163.730469 1196.121094 C 2132.679688 1227.238281 2125.28125 1280.75 2142.929688 1346.941406 C 2147.191406 1362.621094 2137.808594 1378.851562 2122.050781 1383.03125 C 2106.371094 1387.210938 2090.140625 1377.910156 2085.960938 1362.148438 C 2062.640625 1274.769531 2075.480469 1201.011719 2122.128906 1154.441406 C 2154.359375 1122.210938 2200.53125 1105.820312 2255.691406 1107.160156 C 2256.949219 1107.160156 2258.210938 1107.320312 2259.390625 1107.480469 C 2310.210938 1115.28125 2354.808594 1121.429688 2394.128906 1126.941406 C 2544 1147.738281 2619.25 1158.21875 2667.078125 1206.050781 C 2714.910156 1253.878906 2725.390625 1329.128906 2746.191406 1479 C 2751.628906 1518.320312 2757.851562 1562.921875 2765.570312 1613.738281 C 2765.808594 1615 2765.890625 1616.261719 2765.960938 1617.519531 C 2767.21875 1672.601562 2750.910156 1718.851562 2718.679688 1751.078125 C 2687.179688 1782.449219 2643.449219 1798.519531 2591.519531 1798.519531 "/>
<path fill-rule="evenodd" fill="rgb(100%, 100%, 100%)" fill-opacity="1" d="M 678.511719 3224.019531 C 670.949219 3224.019531 663.378906 3221.179688 657.628906 3215.351562 C 646.128906 3203.851562 646.128906 3185.171875 657.628906 3173.671875 L 1206.050781 2625.25 C 1217.550781 2613.75 1236.148438 2613.75 1247.730469 2625.25 C 1259.230469 2636.75 1259.230469 2655.429688 1247.730469 2666.929688 L 699.390625 3215.269531 C 693.558594 3221.101562 686 3224.019531 678.511719 3224.019531 "/>
<path fill-rule="evenodd" fill="rgb(100%, 100%, 100%)" fill-opacity="1" d="M 2646.210938 1256.320312 C 2638.648438 1256.320312 2631.078125 1253.480469 2625.328125 1247.648438 C 2613.828125 1236.148438 2613.828125 1217.46875 2625.328125 1205.96875 L 3173.75 657.550781 C 3185.25 646.050781 3203.851562 646.050781 3215.429688 657.550781 C 3226.929688 669.050781 3226.929688 687.730469 3215.429688 699.230469 L 2667.089844 1247.570312 C 2661.179688 1253.488281 2653.691406 1256.320312 2646.210938 1256.320312 "/>
<path fill-rule="evenodd" fill="rgb(100%, 100%, 100%)" fill-opacity="1" d="M 2319.910156 1986.679688 C 2312.421875 1986.679688 2304.859375 1983.761719 2299.109375 1978.011719 C 2287.609375 1966.511719 2287.609375 1947.828125 2299.109375 1936.328125 C 2318.421875 1917.019531 2320.941406 1879.601562 2306.199219 1833.5 C 2289.019531 1780.078125 2251.671875 1722.710938 2200.929688 1672.050781 C 2150.261719 1621.308594 2092.898438 1583.960938 2039.480469 1566.859375 C 1993.378906 1552.128906 1955.878906 1554.648438 1936.570312 1573.949219 C 1925.070312 1585.449219 1906.390625 1585.449219 1894.890625 1573.949219 C 1883.390625 1562.449219 1883.390625 1543.769531 1894.890625 1532.269531 C 1930.820312 1496.339844 1988.578125 1488.621094 2057.449219 1510.679688 C 2119.621094 1530.621094 2185.410156 1573.089844 2242.621094 1630.371094 C 2299.828125 1687.578125 2342.300781 1753.371094 2362.308594 1815.539062 C 2384.371094 1884.410156 2376.730469 1942.089844 2340.800781 1978.101562 C 2335.039062 1983.851562 2327.480469 1986.679688 2319.910156 1986.679688 "/>
<path fill-rule="evenodd" fill="rgb(100%, 100%, 100%)" fill-opacity="1" d="M 1887.800781 2374.199219 C 1812.078125 2374.199219 1714.921875 2327.160156 1630.371094 2242.609375 C 1573.089844 2185.398438 1530.609375 2119.609375 1510.679688 2057.441406 C 1488.621094 1988.570312 1496.261719 1930.890625 1532.191406 1894.878906 C 1543.691406 1883.378906 1562.371094 1883.378906 1573.871094 1894.878906 C 1585.371094 1906.378906 1585.371094 1925.058594 1573.871094 1936.558594 C 1554.570312 1955.871094 1551.960938 1993.371094 1566.78125 2039.390625 C 1583.878906 2092.808594 1621.230469 2150.179688 1671.96875 2200.839844 C 1722.710938 2251.578125 1780 2288.929688 1833.5 2306.03125 C 1879.601562 2320.761719 1917.101562 2318.238281 1936.328125 2298.941406 C 1947.828125 2287.441406 1966.511719 2287.441406 1978.011719 2298.941406 C 1989.511719 2310.441406 1989.511719 2329.121094 1978.011719 2340.621094 C 1955.398438 2363.410156 1924.039062 2374.199219 1887.800781 2374.199219 "/>
<path fill-rule="evenodd" fill="rgb(100%, 100%, 100%)" fill-opacity="1" d="M 2138.601562 2168.070312 C 2131.039062 2168.070312 2123.46875 2165.230469 2117.71875 2159.398438 L 1713.578125 1755.25 C 1702.078125 1743.75 1702.078125 1725.070312 1713.578125 1713.570312 C 1725.078125 1702.070312 1743.761719 1702.070312 1755.261719 1713.570312 L 2159.410156 2117.710938 C 2170.910156 2129.210938 2170.910156 2147.890625 2159.410156 2159.390625 C 2153.648438 2165.160156 2146.089844 2168.070312 2138.601562 2168.070312 "/>
</svg>
